<?xml version="1.0" encoding="UTF-8" standalone="no"?>
<!-- Created with Inkscape (http://www.inkscape.org/) -->

<svg
   version="1.1"
   id="svg1"
   width="414.10693"
   height="262.66663"
   viewBox="0 0 414.10693 262.66663"
   sodipodi:docname="website_logo_dark.svg"
   inkscape:version="1.3.2 (091e20e, 2023-11-25)"
   xmlns:inkscape="http://www.inkscape.org/namespaces/inkscape"
   xmlns:sodipodi="http://sodipodi.sourceforge.net/DTD/sodipodi-0.dtd"
   xmlns="http://www.w3.org/2000/svg"
   xmlns:svg="http://www.w3.org/2000/svg">
  <defs
     id="defs1" />
  <sodipodi:namedview
     id="namedview1"
     pagecolor="#ffffff"
     bordercolor="#000000"
     borderopacity="0.25"
     inkscape:showpageshadow="2"
     inkscape:pageopacity="0.0"
     inkscape:pagecheckerboard="0"
     inkscape:deskcolor="#d1d1d1"
     inkscape:zoom="0.5699011"
     inkscape:cx="207.93081"
     inkscape:cy="130.72444"
     inkscape:window-width="1366"
     inkscape:window-height="695"
     inkscape:window-x="0"
     inkscape:window-y="0"
     inkscape:window-maximized="1"
     inkscape:current-layer="layer-MC4">
    <inkscape:page
       x="-9.2953887e-05"
       y="-7.8426474e-06"
       width="414.10693"
       height="262.66663"
       id="page2"
       margin="0"
       bleed="0" />
  </sodipodi:namedview>
  <g
     id="layer-MC4"
     inkscape:groupmode="layer"
     inkscape:label="variation 5"
     transform="translate(-7488.9463,-512.00043)">
    <path
       id="path99"
       d="M 0,0 -82.441,83.393 Z M -82.441,110.302 0,193.937 Z M -50.514,96.969 44.794,0 H 0 L -82.441,83.393 -95.784,96.727 -82.441,110.302 0,193.937 h 44.794 z"
       style="fill:#8fb3ff;fill-opacity:0.99215686;fill-rule:nonzero;stroke:none"
       transform="matrix(1.3333333,0,0,-1.3333333,7843.3281,774.58333)" />
    <path
       id="path100"
       d="m 0,0 -24.81,-24.81 -32.45,64.75 -29.059,-57.87 -16.25,-32.5 -16.75,-33 h -36.441 l 98.5,197 z"
       style="fill:#8fb3ff;fill-opacity:0.99215686;fill-rule:nonzero;stroke:none"
       transform="matrix(1.3333333,0,0,-1.3333333,7696.6263,663.42707)" />
    <path
       id="path101"
       d="m 0,0 -37,-1 -14.02,27.98 24.871,24.87 z"
       style="fill:#8fb3ff;fill-opacity:0.99215686;fill-rule:nonzero;stroke:none"
       transform="matrix(1.3333333,0,0,-1.3333333,7752.0533,773.33333)" />
  </g>
</svg>
